<?xml version="1.0" standalone="no"?>
<!DOCTYPE svg PUBLIC "-//W3C//DTD SVG 20010904//EN"
 "http://www.w3.org/TR/2001/REC-SVG-20010904/DTD/svg10.dtd">
<svg version="1.0" xmlns="http://www.w3.org/2000/svg"
 width="500.000000pt" height="500.000000pt" viewBox="0 0 500.000000 500.000000"
 preserveAspectRatio="xMidYMid meet">
<g transform="translate(0.000000,500.000000) scale(0.100000,-0.100000)"
fill="#000000" stroke="none">
<path d="M2367 4642 c-161 -164 -1191 -1202 -1258 -1267 -91 -88 -879 -890
-879 -893 0 -3 138 -142 308 -310 1477 -1461 1883 -1864 1926 -1908 l49 -52
89 92 c49 50 414 420 813 821 1280 1291 1355 1366 1355 1375 0 5 -71 77 -157
162 -86 84 -324 320 -528 523 -204 204 -647 643 -983 976 l-612 606 -123 -125z
m551 -618 c213 -213 374 -372 357 -353 l-30 34 32 -29 c18 -16 30 -32 28 -36
-4 -7 305 -315 316 -315 13 0 809 -806 809 -819 0 -7 -7 -19 -15 -26 -8 -7
-12 -16 -9 -21 3 -5 0 -8 -8 -7 -7 2 -12 -3 -10 -10 1 -6 -4 -11 -10 -10 -7 2
-12 -3 -10 -10 1 -6 -4 -11 -10 -10 -7 2 -12 -3 -10 -10 1 -6 -4 -11 -10 -10
-7 2 -12 -2 -11 -8 1 -6 -44 -55 -100 -110 -56 -54 -80 -75 -52 -47 27 29 46
53 43 53 -13 0 -103 -103 -100 -114 2 -6 0 -8 -4 -3 -10 9 -75 -53 -68 -65 3
-4 -2 -8 -11 -8 -9 0 -13 -4 -10 -10 3 -5 -1 -10 -9 -10 -9 0 -15 -3 -14 -7 3
-19 -16 -43 -34 -43 -10 0 -16 -4 -13 -10 3 -5 -2 -10 -11 -10 -10 0 -15 -3
-12 -6 8 -7 -28 -44 -43 -44 -5 0 -7 -4 -4 -10 3 -5 -1 -10 -9 -10 -9 0 -15
-4 -14 -8 4 -12 -98 -122 -111 -122 -6 0 -11 -7 -11 -15 0 -8 -7 -15 -15 -15
-8 0 -15 -7 -15 -17 0 -9 -3 -13 -7 -10 -3 4 -11 -3 -17 -16 -7 -12 -18 -22
-26 -22 -8 -1 -14 -6 -12 -13 1 -7 -5 -12 -14 -12 -8 0 -12 -4 -9 -10 3 -5 -1
-10 -9 -10 -9 0 -16 -7 -16 -15 0 -8 -6 -14 -12 -13 -7 2 -12 -3 -10 -9 1 -7
-5 -13 -14 -13 -8 0 -12 -4 -9 -10 3 -5 -1 -10 -10 -10 -9 0 -14 -4 -11 -9 3
-5 -4 -11 -15 -14 -12 -3 -18 -10 -14 -16 3 -6 -1 -11 -10 -11 -9 0 -13 -4
-10 -10 3 -5 1 -10 -5 -10 -15 0 -91 -76 -83 -84 4 -3 -1 -6 -10 -6 -10 0 -16
-6 -15 -12 2 -7 -3 -12 -10 -10 -6 1 -11 -4 -10 -10 2 -7 -4 -12 -12 -10 -8 2
-12 0 -7 -4 9 -10 -33 -55 -45 -48 -5 3 -7 0 -6 -8 2 -7 -3 -12 -10 -10 -8 1
-11 -2 -8 -6 3 -5 -4 -18 -17 -28 -21 -19 -21 -19 -7 1 14 20 14 20 -7 1 -13
-10 -20 -23 -17 -27 3 -5 -2 -9 -11 -9 -9 0 -14 -4 -11 -9 3 -4 -4 -17 -17
-27 -21 -19 -21 -19 -7 1 14 20 14 20 -7 1 -13 -10 -20 -23 -17 -28 3 -4 0 -7
-8 -6 -7 2 -12 -2 -11 -8 1 -7 -8 -20 -20 -30 -21 -19 -21 -19 -7 1 14 20 14
20 -7 1 -13 -10 -20 -23 -17 -28 3 -4 0 -7 -8 -6 -7 2 -12 -3 -10 -10 1 -8 -1
-11 -6 -8 -5 3 -33 -20 -63 -51 -30 -31 -45 -51 -34 -43 11 8 -18 -25 -65 -73
-46 -48 -90 -87 -96 -87 -6 0 -19 -10 -30 -22 -10 -12 -13 -18 -5 -13 10 5 12
4 7 -3 -4 -7 -14 -12 -22 -12 -8 0 -12 -4 -9 -10 3 -5 -1 -10 -10 -10 -9 0
-13 -5 -10 -10 3 -6 -1 -10 -10 -10 -9 0 -14 -4 -11 -8 6 -10 -29 -42 -46 -42
-6 0 -8 -3 -5 -6 10 -11 -104 -119 -122 -116 -8 2 -99 88 -201 190 -102 102
-162 162 -135 132 l50 -55 -52 49 c-29 27 -50 52 -48 56 2 4 -63 73 -146 154
-83 81 -147 141 -143 134 4 -7 -228 223 -517 511 -288 289 -501 500 -474 470
l50 -54 -52 49 c-29 27 -50 52 -48 56 2 3 -41 51 -96 106 -67 67 -99 106 -99
121 0 13 5 23 12 23 6 0 9 3 5 6 -9 10 30 47 42 40 7 -5 8 -1 4 10 -5 14 -3
16 11 11 11 -4 15 -3 11 4 -8 12 85 115 100 111 6 -2 7 0 2 4 -9 9 22 44 40
44 7 0 12 6 11 13 -2 6 3 11 10 9 6 -1 11 4 10 10 -2 7 3 12 10 10 6 -1 11 3
10 10 -2 7 4 12 12 13 8 1 14 6 12 13 -1 7 4 11 10 10 7 -2 12 3 10 10 -1 6 5
12 14 12 8 0 13 4 10 9 -3 5 4 11 15 14 12 3 18 10 14 17 -4 6 -1 9 7 8 7 -2
12 3 10 10 -1 6 5 12 14 12 8 0 12 5 9 10 -3 6 0 10 8 10 17 0 49 34 40 43 -3
4 -1 7 6 7 17 0 61 46 53 56 -4 4 -2 4 4 1 11 -6 48 30 49 48 1 6 7 9 14 7 7
-1 10 1 7 6 -3 5 25 37 61 73 37 35 60 55 53 44 -14 -20 -14 -20 7 -1 13 10
20 23 17 28 -3 4 0 7 8 6 7 -2 12 3 11 10 -2 6 3 12 10 12 18 0 49 35 40 44
-5 4 -1 6 7 4 8 -2 14 3 13 9 -2 7 2 12 9 10 7 -1 12 5 13 13 0 8 7 15 15 15
8 1 14 6 13 13 -2 7 3 11 10 9 6 -1 11 4 10 10 -2 7 3 12 10 10 6 -1 11 4 10
10 -2 7 3 12 10 10 6 -1 11 4 10 10 -2 7 2 12 9 10 7 -1 12 3 13 10 0 6 4 15
9 20 6 5 6 2 1 -7 -5 -8 9 1 31 20 22 19 39 37 37 39 -2 3 -15 -6 -31 -20 -15
-13 11 16 58 64 46 48 91 87 98 87 7 0 10 5 7 10 -3 6 1 10 9 10 8 0 18 5 22
12 5 7 3 8 -6 3 -9 -5 -11 -4 -6 3 4 7 14 12 22 12 8 0 12 5 9 10 -3 6 1 10
10 10 9 0 13 5 10 10 -3 6 1 10 10 10 9 0 13 5 10 10 -3 6 -1 10 4 10 6 0 11
7 11 15 0 8 7 15 16 15 8 0 12 5 9 10 -3 6 -1 10 5 10 12 0 170 160 170 173 0
4 7 7 16 7 8 0 12 5 9 10 -3 6 1 10 10 10 9 0 14 4 11 8 -5 9 22 36 38 39 5 1
14 12 20 25 6 13 18 23 26 23 8 1 14 6 13 13 -2 7 3 11 10 9 6 -1 11 4 10 11
-2 6 4 12 13 12 8 0 12 5 9 10 -3 6 1 10 9 10 9 0 16 7 16 15 0 8 7 15 16 15
8 0 12 5 9 10 -3 6 1 10 10 10 9 0 14 4 11 9 -3 5 4 11 15 14 12 3 18 10 14
17 -4 6 -1 9 7 8 7 -2 12 3 11 10 -2 6 4 12 13 12 8 0 12 5 9 10 -3 6 1 10 10
10 9 0 14 4 11 9 -3 5 2 15 11 22 14 12 16 12 9 -1 -4 -8 3 -3 16 12 13 15 33
27 46 27 17 1 121 -97 410 -385z"/>
<path d="M2407 4060 c-266 -45 -488 -214 -605 -458 -49 -105 -82 -240 -82
-343 0 -85 25 -216 56 -294 22 -55 22 -58 3 -32 -11 15 -25 27 -30 27 -5 0 -9
-324 -9 -805 l0 -805 125 0 125 0 2 432 3 433 255 -417 c140 -230 257 -417
260 -417 3 0 120 187 260 416 l255 416 3 -431 2 -432 125 0 125 0 0 805 c0
443 -4 805 -8 805 -4 0 -14 -6 -21 -12 -12 -11 -13 -10 -7 6 26 75 45 296 30
354 l-6 22 -369 0 -369 0 0 -115 0 -115 246 0 247 0 -6 -52 c-30 -249 -323
-404 -621 -328 -190 48 -327 170 -395 350 -35 93 -37 264 -3 362 64 184 220
325 412 374 160 40 362 -17 511 -146 l43 -36 66 100 c77 116 79 107 -25 181
-182 129 -405 187 -598 155z m-362 -1447 c274 -210 684 -214 953 -11 l54 40
-39 -60 c-155 -241 -499 -762 -503 -762 -3 0 -85 123 -183 273 -97 149 -232
355 -298 457 -112 171 -117 181 -72 139 26 -25 66 -59 88 -76z"/>
</g>
</svg>
